<svg width="16" height="18" viewBox="0 0 16 18" fill="none" xmlns="http://www.w3.org/2000/svg">
<path d="M14.5194 3.01501V4.67999C14.5194 5.28749 14.1369 6.04501 13.7619 6.42751L12.4419 7.59C12.1944 7.53 11.9319 7.5 11.6619 7.5C9.69687 7.5 8.09937 9.0975 8.09937 11.0625C8.09937 11.73 8.28687 12.36 8.61687 12.9C8.89437 13.365 9.27687 13.7625 9.74187 14.0475V14.3025C9.74187 14.76 9.44187 15.3675 9.05937 15.5925L8.00187 16.275C7.01937 16.8825 5.65437 16.2 5.65437 14.985V10.9725C5.65437 10.44 5.34688 9.75751 5.04688 9.38251L2.16687 6.35248C1.79187 5.96998 1.48438 5.28751 1.48438 4.83751V3.09C1.48438 2.1825 2.16688 1.5 2.99938 1.5H13.0044C13.8369 1.5 14.5194 2.18251 14.5194 3.01501Z" stroke="#4169E0" stroke-width="1.5" stroke-miterlimit="10" stroke-linecap="round" stroke-linejoin="round"/>
</svg>
