<svg width="102" height="23" viewBox="0 0 102 23" fill="none" xmlns="http://www.w3.org/2000/svg">
<rect y="3" width="78" height="17" rx="2" fill="#F7CD47"/>
<path d="M82 5C82 3.89543 82.8954 3 84 3H93C93.5523 3 94 3.44772 94 4V19C94 19.5523 93.5523 20 93 20H84C82.8954 20 82 19.1046 82 18V5Z" fill="#F7CD47"/>
<rect x="78" y="5" width="4" height="12" fill="#F7CD47"/>
<path d="M101.315 10.8004C101.696 11.1892 101.696 11.8108 101.315 12.1996L93.9646 19.7079C93.3377 20.3482 92.25 19.9044 92.25 19.0084L92.25 3.99165C92.25 3.09561 93.3377 2.6518 93.9646 3.29209L101.315 10.8004Z" fill="#F7CD47"/>
</svg>
