<svg width="32" height="32" viewBox="0 0 32 32" fill="none" xmlns="http://www.w3.org/2000/svg">
<path d="M27.6364 0H4.36364C1.95367 0 0 1.95367 0 4.36364V27.6364C0 30.0463 1.95367 32 4.36364 32H27.6364C30.0463 32 32 30.0463 32 27.6364V4.36364C32 1.95367 30.0463 0 27.6364 0Z" fill="#54DF8B"/>
<path d="M23.0544 8.94536C21.3897 7.26408 19.1791 6.23301 16.8211 6.03813C14.4632 5.84324 12.1132 6.49737 10.1951 7.88252C8.27703 9.26768 6.91703 11.2927 6.36047 13.5922C5.80391 15.8918 6.08741 18.3146 7.15984 20.4235L6.10712 25.5344C6.09619 25.5853 6.09588 25.6379 6.10621 25.6889C6.11653 25.7399 6.13727 25.7882 6.16712 25.8308C6.21084 25.8955 6.27326 25.9453 6.34604 25.9735C6.41881 26.0018 6.49847 26.0072 6.57439 25.989L11.5835 24.8017C13.6865 25.847 16.0922 26.1123 18.3724 25.5503C20.6527 24.9884 22.6596 23.6357 24.0361 21.7329C25.4126 19.8302 26.0694 17.5007 25.8897 15.1592C25.7099 12.8176 24.7052 10.6157 23.0544 8.94536ZM21.4926 21.4108C20.3408 22.5594 18.8576 23.3175 17.2521 23.5785C15.6466 23.8394 13.9997 23.59 12.5435 22.8654L11.8453 22.5199L8.77439 23.2472L8.78348 23.209L9.41985 20.1181L9.07803 19.4435C8.33395 17.9822 8.07147 16.3229 8.32818 14.7033C8.58489 13.0836 9.34763 11.5868 10.5071 10.4272C11.964 8.97071 13.9398 8.15251 15.9998 8.15251C18.0599 8.15251 20.0357 8.97071 21.4926 10.4272C21.505 10.4414 21.5183 10.4548 21.5326 10.4672C22.9714 11.9274 23.7747 13.8972 23.7672 15.9472C23.7597 17.9972 22.9421 19.9611 21.4926 21.4108Z" fill="white"/>
<path d="M21.2176 19.1435C20.8412 19.7363 20.2467 20.4617 19.4994 20.6417C18.1903 20.9581 16.1812 20.6526 13.6812 18.3217L13.6503 18.2944C11.4521 16.2563 10.8812 14.5599 11.0194 13.2144C11.0958 12.4508 11.7321 11.7599 12.2685 11.309C12.3533 11.2366 12.4539 11.1851 12.5621 11.1585C12.6704 11.132 12.7834 11.1311 12.8921 11.156C13.0007 11.1809 13.1021 11.2309 13.1879 11.302C13.2738 11.3731 13.3419 11.4633 13.3867 11.5653L14.1958 13.3835C14.2484 13.5014 14.2678 13.6314 14.2521 13.7595C14.2365 13.8876 14.1862 14.0091 14.1067 14.1108L13.6976 14.6417C13.6098 14.7513 13.5569 14.8847 13.5455 15.0247C13.5342 15.1647 13.565 15.3048 13.634 15.4272C13.8631 15.829 14.4121 16.4199 15.0212 16.9672C15.7049 17.5853 16.4631 18.1508 16.9431 18.3435C17.0715 18.396 17.2127 18.4088 17.3485 18.3803C17.4843 18.3518 17.6084 18.2832 17.7049 18.1835L18.1794 17.7053C18.271 17.6151 18.3849 17.5507 18.5094 17.5187C18.634 17.4868 18.7648 17.4884 18.8885 17.5235L20.8103 18.069C20.9163 18.1015 21.0135 18.1578 21.0944 18.2337C21.1753 18.3095 21.2378 18.4028 21.2771 18.5065C21.3164 18.6102 21.3315 18.7215 21.3212 18.8319C21.3108 18.9423 21.2754 19.0489 21.2176 19.1435Z" fill="white"/>
</svg>
