<svg width="469" height="218" viewBox="0 0 469 218" fill="none" xmlns="http://www.w3.org/2000/svg">
<g opacity="0.1">
<path fill-rule="evenodd" clip-rule="evenodd" d="M108.851 217.704C48.7339 217.704 -0.000808716 168.969 -0.000808716 108.852C-0.000808716 48.7347 48.7339 0 108.851 0C168.968 0 217.703 48.7347 217.703 108.852C217.703 168.969 168.968 217.704 108.851 217.704ZM109 159C81.3858 159 59 136.614 59 109C59 81.3858 81.3858 59 109 59C136.614 59 159 81.3858 159 109C159 136.614 136.614 159 109 159Z" fill="#4169E0"/>
<rect width="6.9902" height="34.0772" rx="3.4951" transform="matrix(0 -1 -1 0 468.734 207.085)" fill="#4169E0"/>
<rect width="6.9902" height="34.0772" rx="3.4951" transform="matrix(0 -1 -1 0 314.078 207.085)" fill="#4169E0"/>
<rect width="6.9902" height="34.0772" rx="3.4951" transform="matrix(0 -1 -1 0 430.289 207.085)" fill="#4169E0"/>
<rect width="6.9902" height="34.0772" rx="3.4951" transform="matrix(0 -1 -1 0 353.398 207.085)" fill="#4169E0"/>
<rect width="6.9902" height="34.0772" rx="3.4951" transform="matrix(0 -1 -1 0 391.844 208.829)" fill="#4169E0"/>
<rect width="6.9902" height="34.0772" rx="3.4951" transform="matrix(0 -1 -1 0 468.734 194.851)" fill="#4169E0"/>
<rect width="6.9902" height="34.0772" rx="3.4951" transform="matrix(0 -1 -1 0 314.078 194.845)" fill="#4169E0"/>
<rect width="6.9902" height="34.0772" rx="3.4951" transform="matrix(0 -1 -1 0 430.289 194.851)" fill="#4169E0"/>
<rect width="6.9902" height="34.0772" rx="3.4951" transform="matrix(0 -1 -1 0 353.398 194.851)" fill="#4169E0"/>
<rect width="6.9902" height="34.0772" rx="3.4951" transform="matrix(0 -1 -1 0 391.844 179.99)" fill="#4169E0"/>
<rect width="6.9902" height="34.0772" rx="3.4951" transform="matrix(0 -1 -1 0 468.734 181.745)" fill="#4169E0"/>
<rect width="6.9902" height="34.0772" rx="3.4951" transform="matrix(0 -1 -1 0 314.078 181.745)" fill="#4169E0"/>
</g>
</svg>
