<svg width="32" height="32" viewBox="0 0 32 32" fill="none" xmlns="http://www.w3.org/2000/svg">
<g clip-path="url(#clip0_932_7953)">
<path d="M16 0C24.832 0 32 7.168 32 16C32 24.832 24.832 32 16 32C7.168 32 0 24.832 0 16C0 7.168 7.168 0 16 0Z" fill="#EF3124"/>
<path d="M17.5034 10.4639C17.2474 9.72786 16.9594 9.15186 15.9994 9.15186C15.0394 9.15186 14.7194 9.72786 14.4634 10.4639L11.7754 18.0799H13.5674L14.1754 16.2559H17.5994L18.1754 18.0799H20.0634L17.5034 10.4639ZM14.6874 14.7519L15.9034 11.1359H15.9354L17.0874 14.7519H14.6874Z" fill="white"/>
<path d="M20.256 20.5117H11.584V22.3037H20.256V20.5117Z" fill="white"/>
</g>
<defs>
<clipPath id="clip0_932_7953">
<rect width="32" height="32" fill="white"/>
</clipPath>
</defs>
</svg>
