<svg width="32" height="32" viewBox="0 0 32 32" fill="none" xmlns="http://www.w3.org/2000/svg">
<g clip-path="url(#clip0_932_7929)">
<path d="M32 16C32 7.16344 24.8366 0 16 0C7.16344 0 0 7.16344 0 16C0 24.8366 7.16344 32 16 32C24.8366 32 32 24.8366 32 16Z" fill="url(#paint0_linear_932_7929)"/>
<path d="M22.829 10.5117C23.2402 11.0515 23.5881 11.6366 23.8658 12.2557L16.0002 18.1405L12.6914 16.0509V13.5325L16.0002 15.6253L22.829 10.5117Z" fill="white"/>
<path d="M9.33281 15.8717C9.33281 15.7597 9.33281 15.6477 9.33281 15.5357L7.33601 15.4365C7.33601 15.5805 7.33601 15.7277 7.33601 15.8749C7.32666 18.1964 8.2367 20.4272 9.86721 22.0797L11.2816 20.6461C10.0277 19.374 9.32724 17.6579 9.33281 15.8717V15.8717Z" fill="white"/>
<path d="M16.001 9.12983C16.1098 9.12983 16.2218 9.12983 16.321 9.12983L16.4234 7.10743C16.2794 7.10743 16.1354 7.10743 15.9914 7.10743C14.8526 7.10603 13.725 7.33171 12.6744 7.77128C11.6239 8.21084 10.6715 8.85545 9.87305 9.66743L11.2874 11.101C11.903 10.4786 12.6347 9.9828 13.441 9.64183C14.2516 9.3017 15.1221 9.1276 16.001 9.12983V9.12983Z" fill="white"/>
<path d="M16 22.6145C15.888 22.6145 15.776 22.6145 15.68 22.6145L15.5488 24.6401C15.6928 24.6401 15.8368 24.6401 15.984 24.6401C17.1219 24.6415 18.2486 24.4158 19.2981 23.9762C20.3476 23.5367 21.2988 22.892 22.096 22.0801L20.6848 20.6465C20.0697 21.2726 19.3367 21.7708 18.528 22.1121C17.7269 22.4452 16.8676 22.6159 16 22.6145V22.6145Z" fill="white"/>
<path d="M19.7346 10.3072L21.4146 9.04961C19.8822 7.78907 17.9589 7.10118 15.9746 7.10401V9.12961C17.319 9.12759 18.6316 9.53867 19.7346 10.3072V10.3072Z" fill="white"/>
<path d="M24.6401 15.872C24.6419 15.3453 24.5969 14.8195 24.5057 14.3008L22.6369 15.68V15.8592C22.6438 16.8041 22.4542 17.7402 22.0801 18.608C21.7041 19.4668 21.1526 20.2375 20.4609 20.8704L21.8049 22.3744C22.7022 21.5461 23.4176 20.5404 23.9057 19.421C24.3937 18.3017 24.6438 17.0931 24.6401 15.872V15.872Z" fill="white"/>
<path d="M16.0004 22.6144C15.0692 22.6153 14.1485 22.4178 13.2996 22.0352C12.4454 21.6522 11.682 21.0927 11.0596 20.3936L9.56836 21.76C10.3754 22.6681 11.3662 23.3944 12.475 23.8909C13.5838 24.3874 14.7855 24.6427 16.0004 24.64V22.6144Z" fill="white"/>
<path d="M11.5209 10.88L10.1801 9.37598C9.27982 10.2026 8.56165 11.2077 8.0713 12.3273C7.58096 13.4468 7.3292 14.6562 7.33206 15.8784H9.33206C9.32903 14.9388 9.52214 14.0089 9.89904 13.1482C10.2759 12.2875 10.8283 11.515 11.5209 10.88V10.88Z" fill="white"/>
</g>
<defs>
<linearGradient id="paint0_linear_932_7929" x1="8.3136" y1="23.9936" x2="30.4928" y2="0.928" gradientUnits="userSpaceOnUse">
<stop stop-color="#A3CD38"/>
<stop offset="0.04" stop-color="#A3CD38"/>
<stop offset="0.11" stop-color="#8EC850"/>
<stop offset="0.21" stop-color="#75C26C"/>
<stop offset="0.27" stop-color="#6CC076"/>
<stop offset="0.28" stop-color="#65BE7F"/>
<stop offset="0.36" stop-color="#55BA91"/>
<stop offset="0.51" stop-color="#2CAFBF"/>
<stop offset="0.61" stop-color="#0FA8E0"/>
</linearGradient>
<clipPath id="clip0_932_7929">
<rect width="32" height="32" fill="white"/>
</clipPath>
</defs>
</svg>
