<svg width="1295" height="96" viewBox="0 0 1295 96" fill="none" xmlns="http://www.w3.org/2000/svg">
<rect width="1295" height="96" rx="10" fill="#E0F2FF"/>
<mask id="mask0_1303_179759" style="mask-type:alpha" maskUnits="userSpaceOnUse" x="0" y="0" width="1295" height="96">
<rect width="1295" height="96" rx="10" fill="#E0F2FF"/>
</mask>
<g mask="url(#mask0_1303_179759)">
<rect x="75" y="62.7344" width="5.07317" height="24.7317" rx="2.53659" transform="rotate(-90 75 62.7344)" fill="white"/>
<rect x="187.242" y="62.7344" width="5.07317" height="24.7317" rx="2.53659" transform="rotate(-90 187.242 62.7344)" fill="white"/>
<rect x="102.906" y="62.7344" width="5.07317" height="24.7317" rx="2.53659" transform="rotate(-90 102.906 62.7344)" fill="white"/>
<rect x="158.703" y="62.7344" width="5.07317" height="24.7317" rx="2.53659" transform="rotate(-90 158.703 62.7344)" fill="white"/>
<rect x="130.805" y="64" width="5.07317" height="24.7317" rx="2.53659" transform="rotate(-90 130.805 64)" fill="white"/>
<rect x="75" y="53.8594" width="5.07317" height="24.7317" rx="2.53659" transform="rotate(-90 75 53.8594)" fill="white"/>
<rect x="187.242" y="53.8516" width="5.07317" height="24.7317" rx="2.53659" transform="rotate(-90 187.242 53.8516)" fill="white"/>
<rect x="102.906" y="53.8594" width="5.07317" height="24.7317" rx="2.53659" transform="rotate(-90 102.906 53.8594)" fill="white"/>
<rect x="158.703" y="53.8594" width="5.07317" height="24.7317" rx="2.53659" transform="rotate(-90 158.703 53.8594)" fill="white"/>
<rect x="130.805" y="43.0703" width="5.07317" height="24.7317" rx="2.53659" transform="rotate(-90 130.805 43.0703)" fill="white"/>
<rect x="75" y="44.3438" width="5.07317" height="24.7317" rx="2.53659" transform="rotate(-90 75 44.3438)" fill="white"/>
<rect x="187.242" y="44.3438" width="5.07317" height="24.7317" rx="2.53659" transform="rotate(-90 187.242 44.3438)" fill="white"/>
<rect width="5.07317" height="24.7317" rx="2.53659" transform="matrix(0 1 1 0 1197 -0.734375)" fill="white"/>
<rect width="5.07317" height="24.7317" rx="2.53659" transform="matrix(0 1 1 0 1224.91 -0.734375)" fill="white"/>
<rect width="5.07317" height="24.7317" rx="2.53659" transform="matrix(0 1 1 0 1280.7 -0.734375)" fill="white"/>
<rect width="5.07317" height="24.7317" rx="2.53659" transform="matrix(0 1 1 0 1252.8 -2)" fill="white"/>
<rect width="5.07317" height="24.7317" rx="2.53659" transform="matrix(0 1 1 0 1197 8.14062)" fill="white"/>
<rect width="5.07317" height="24.7317" rx="2.53659" transform="matrix(0 1 1 0 1224.91 8.14062)" fill="white"/>
<rect width="5.07317" height="24.7317" rx="2.53659" transform="matrix(0 1 1 0 1280.7 8.14062)" fill="white"/>
<rect width="5.07317" height="24.7317" rx="2.53659" transform="matrix(0 1 1 0 1252.8 18.9297)" fill="white"/>
<rect width="5.07317" height="24.7317" rx="2.53659" transform="matrix(0 1 1 0 1197 17.6562)" fill="white"/>
</g>
</svg>
