<svg width="1400" height="346" viewBox="0 0 1400 346" fill="none" xmlns="http://www.w3.org/2000/svg">
<g clip-path="url(#clip0_1382_191957)">
<rect y="-0.148438" width="1400" height="346" fill="#E0F2FF"/>
<path fill-rule="evenodd" clip-rule="evenodd" d="M817 404C911.441 404 988 327.441 988 233C988 138.559 911.441 62 817 62C722.559 62 646 138.559 646 233C646 327.441 722.559 404 817 404ZM816.993 323.122C866.766 323.122 907.114 282.773 907.114 233C907.114 183.227 866.766 142.879 816.993 142.879C767.22 142.879 726.871 183.227 726.871 233C726.871 282.773 767.22 323.122 816.993 323.122Z" fill="white" fill-opacity="0.37"/>
<rect x="830.266" y="19" width="5.07317" height="24.7317" rx="2.53659" fill="white"/>
<rect x="830.266" y="131.242" width="5.07317" height="24.7317" rx="2.53659" fill="white"/>
<rect x="830.266" y="46.9062" width="5.07317" height="24.7317" rx="2.53659" fill="white"/>
<rect x="830.266" y="102.703" width="5.07317" height="24.7317" rx="2.53659" fill="white"/>
<rect x="829" y="74.8047" width="5.07317" height="24.7317" rx="2.53659" fill="white"/>
<rect x="839.141" y="19" width="5.07317" height="24.7317" rx="2.53659" fill="white"/>
<rect x="839.148" y="131.242" width="5.07317" height="24.7317" rx="2.53659" fill="white"/>
<rect x="839.141" y="46.9062" width="5.07317" height="24.7317" rx="2.53659" fill="white"/>
<rect x="839.141" y="102.711" width="5.07317" height="24.7317" rx="2.53659" fill="white"/>
<rect x="849.93" y="74.8047" width="5.07317" height="24.7317" rx="2.53659" fill="white"/>
<rect x="848.656" y="19" width="5.07317" height="24.7317" rx="2.53659" fill="white"/>
<rect x="848.656" y="131.242" width="5.07317" height="24.7317" rx="2.53659" fill="white"/>
<rect x="89.2656" y="192" width="5.07317" height="24.7317" rx="2.53659" fill="white"/>
<rect x="89.2656" y="304.242" width="5.07317" height="24.7317" rx="2.53659" fill="white"/>
<rect x="89.2656" y="219.906" width="5.07317" height="24.7317" rx="2.53659" fill="white"/>
<rect x="89.2656" y="275.703" width="5.07317" height="24.7317" rx="2.53659" fill="white"/>
<rect x="88" y="247.805" width="5.07317" height="24.7317" rx="2.53659" fill="white"/>
<rect x="98.1406" y="192" width="5.07317" height="24.7317" rx="2.53659" fill="white"/>
<rect x="98.1484" y="304.242" width="5.07317" height="24.7317" rx="2.53659" fill="white"/>
<rect x="98.1406" y="219.906" width="5.07317" height="24.7317" rx="2.53659" fill="white"/>
<rect x="98.1406" y="275.711" width="5.07317" height="24.7317" rx="2.53659" fill="white"/>
<rect x="108.93" y="247.805" width="5.07317" height="24.7317" rx="2.53659" fill="white"/>
<rect x="107.656" y="192" width="5.07317" height="24.7317" rx="2.53659" fill="white"/>
<rect x="107.656" y="304.242" width="5.07317" height="24.7317" rx="2.53659" fill="white"/>
</g>
<defs>
<clipPath id="clip0_1382_191957">
<rect width="1400" height="346" fill="white"/>
</clipPath>
</defs>
</svg>
