<svg width="1261" height="355" viewBox="0 0 1261 355" fill="none" xmlns="http://www.w3.org/2000/svg">
<path d="M0 25.668C0 11.8609 11.1929 0.667969 25 0.667969H1071C1084.81 0.667969 1096 11.8608 1096 25.668V354.668H0V25.668Z" fill="#E0F2FF"/>
<path d="M0 26C0 12.1929 11.1929 1 25 1H1236C1249.81 1 1261 12.1929 1261 26V355H0V26Z" fill="#E0F2FF"/>
<path fill-rule="evenodd" clip-rule="evenodd" d="M990.5 334.668C1077.48 334.668 1148 264.153 1148 177.168C1148 90.1831 1077.48 19.668 990.5 19.668C903.515 19.668 833 90.1831 833 177.168C833 264.153 903.515 334.668 990.5 334.668ZM990.497 260.175C1036.34 260.175 1073.5 223.012 1073.5 177.168C1073.5 131.325 1036.34 94.1615 990.497 94.1615C944.654 94.1615 907.49 131.325 907.49 177.168C907.49 223.012 944.654 260.175 990.497 260.175Z" fill="white" fill-opacity="0.37"/>
<rect x="1192.27" y="34.668" width="5.07317" height="24.7317" rx="2.53659" fill="white"/>
<rect x="1192.27" y="146.912" width="5.07317" height="24.7317" rx="2.53659" fill="white"/>
<rect x="1192.27" y="62.5703" width="5.07317" height="24.7317" rx="2.53659" fill="white"/>
<rect x="1192.27" y="118.375" width="5.07317" height="24.7317" rx="2.53659" fill="white"/>
<rect x="1191" y="90.4729" width="5.07317" height="24.7317" rx="2.53659" fill="white"/>
<rect x="1201.15" y="34.668" width="5.07317" height="24.7317" rx="2.53659" fill="white"/>
<rect x="1201.15" y="146.912" width="5.07317" height="24.7317" rx="2.53659" fill="white"/>
<rect x="1201.15" y="62.5703" width="5.07317" height="24.7317" rx="2.53659" fill="white"/>
<rect x="1201.15" y="118.375" width="5.07317" height="24.7317" rx="2.53659" fill="white"/>
<rect x="1211.93" y="90.4727" width="5.07317" height="24.7317" rx="2.53659" fill="white"/>
<rect x="1210.66" y="34.668" width="5.07317" height="24.7317" rx="2.53659" fill="white"/>
<rect x="1210.66" y="146.912" width="5.07317" height="24.7317" rx="2.53659" fill="white"/>
<rect x="32.8984" y="271.668" width="7.59286" height="37.0152" rx="3.79643" fill="white" fill-opacity="0.58"/>
<rect x="32.8984" y="313.429" width="7.59286" height="37.0152" rx="3.79643" fill="white" fill-opacity="0.58"/>
<rect x="46.1875" y="271.668" width="7.59286" height="37.0152" rx="3.79643" fill="white" fill-opacity="0.58"/>
<rect x="46.1875" y="313.429" width="7.59286" height="37.0152" rx="3.79643" fill="white" fill-opacity="0.58"/>
<rect x="60.4219" y="271.668" width="7.59286" height="37.0152" rx="3.79643" fill="white" fill-opacity="0.58"/>
</svg>
