<svg width="1401" height="354" viewBox="0 0 1401 354" fill="none" xmlns="http://www.w3.org/2000/svg">
<path d="M0 25C0 11.1929 11.1929 0 25 0H1376C1389.81 0 1401 11.1929 1401 25V354H0V25Z" fill="#E0F2FF"/>
<path opacity="0.7" d="M183.733 212H182.852C182.8 211.747 182.709 211.524 182.579 211.332C182.451 211.141 182.295 210.98 182.11 210.849C181.928 210.717 181.725 210.617 181.503 210.551C181.28 210.485 181.048 210.452 180.807 210.452C180.366 210.452 179.968 210.563 179.61 210.786C179.255 211.008 178.972 211.336 178.761 211.769C178.553 212.202 178.449 212.734 178.449 213.364C178.449 213.993 178.553 214.525 178.761 214.958C178.972 215.391 179.255 215.719 179.61 215.942C179.968 216.164 180.366 216.276 180.807 216.276C181.048 216.276 181.28 216.242 181.503 216.176C181.725 216.11 181.928 216.012 182.11 215.881C182.295 215.749 182.451 215.587 182.579 215.395C182.709 215.201 182.8 214.978 182.852 214.727H183.733C183.667 215.099 183.546 215.432 183.371 215.725C183.196 216.019 182.978 216.268 182.717 216.474C182.457 216.678 182.165 216.833 181.84 216.94C181.518 217.046 181.174 217.099 180.807 217.099C180.187 217.099 179.635 216.948 179.152 216.645C178.669 216.342 178.289 215.911 178.012 215.352C177.735 214.794 177.597 214.131 177.597 213.364C177.597 212.597 177.735 211.934 178.012 211.375C178.289 210.816 178.669 210.385 179.152 210.082C179.635 209.779 180.187 209.628 180.807 209.628C181.174 209.628 181.518 209.681 181.84 209.788C182.165 209.894 182.457 210.05 182.717 210.256C182.978 210.46 183.196 210.709 183.371 211.002C183.546 211.293 183.667 211.626 183.733 212ZM184.73 212.327V211.545H189.162V212.327H187.372V217H186.534V212.327H184.73ZM191.706 217.128C191.36 217.128 191.047 217.063 190.765 216.933C190.483 216.8 190.26 216.609 190.094 216.361C189.928 216.11 189.845 215.807 189.845 215.452C189.845 215.139 189.907 214.886 190.03 214.692C190.153 214.495 190.318 214.341 190.524 214.23C190.73 214.119 190.957 214.036 191.205 213.982C191.456 213.925 191.709 213.88 191.962 213.847C192.293 213.804 192.562 213.772 192.768 213.751C192.976 213.727 193.128 213.688 193.222 213.634C193.32 213.579 193.368 213.484 193.368 213.349V213.321C193.368 212.971 193.272 212.698 193.08 212.504C192.891 212.31 192.603 212.213 192.218 212.213C191.817 212.213 191.504 212.301 191.276 212.476C191.049 212.651 190.889 212.838 190.797 213.037L190.002 212.753C190.144 212.421 190.333 212.163 190.57 211.979C190.809 211.792 191.069 211.661 191.351 211.588C191.635 211.512 191.914 211.474 192.189 211.474C192.364 211.474 192.566 211.496 192.793 211.538C193.022 211.579 193.244 211.663 193.457 211.79C193.672 211.918 193.851 212.111 193.993 212.369C194.135 212.627 194.206 212.973 194.206 213.406V217H193.368V216.261H193.325C193.269 216.38 193.174 216.506 193.041 216.641C192.909 216.776 192.732 216.891 192.512 216.986C192.292 217.08 192.023 217.128 191.706 217.128ZM191.834 216.375C192.165 216.375 192.445 216.31 192.672 216.18C192.902 216.049 193.075 215.881 193.191 215.675C193.309 215.469 193.368 215.253 193.368 215.026V214.259C193.333 214.301 193.254 214.34 193.134 214.376C193.015 214.409 192.878 214.438 192.722 214.464C192.568 214.488 192.418 214.509 192.271 214.528C192.126 214.545 192.009 214.559 191.919 214.571C191.701 214.599 191.498 214.646 191.308 214.71C191.121 214.771 190.97 214.865 190.854 214.99C190.74 215.113 190.683 215.281 190.683 215.494C190.683 215.786 190.791 216.006 191.007 216.155C191.224 216.302 191.5 216.375 191.834 216.375ZM195.736 217V211.545H197.966C198.553 211.545 199.019 211.678 199.365 211.943C199.711 212.208 199.884 212.559 199.884 212.994C199.884 213.326 199.785 213.583 199.589 213.765C199.392 213.945 199.14 214.067 198.832 214.131C199.034 214.159 199.229 214.23 199.418 214.344C199.61 214.457 199.769 214.614 199.894 214.812C200.02 215.009 200.082 215.25 200.082 215.537C200.082 215.816 200.011 216.066 199.869 216.286C199.727 216.506 199.524 216.68 199.259 216.808C198.993 216.936 198.676 217 198.307 217H195.736ZM196.531 216.233H198.307C198.596 216.233 198.822 216.164 198.985 216.027C199.148 215.89 199.23 215.703 199.23 215.466C199.23 215.184 199.148 214.963 198.985 214.802C198.822 214.638 198.596 214.557 198.307 214.557H196.531V216.233ZM196.531 213.832H197.966C198.191 213.832 198.384 213.802 198.545 213.74C198.706 213.676 198.829 213.586 198.914 213.47C199.002 213.352 199.045 213.212 199.045 213.051C199.045 212.821 198.95 212.642 198.758 212.511C198.566 212.379 198.302 212.312 197.966 212.312H196.531V213.832ZM201.351 217V211.545H202.189V213.918H202.743L204.703 211.545H205.783L203.581 214.173L205.811 217H204.732L202.942 214.699H202.189V217H201.351ZM208.327 217.128C207.982 217.128 207.668 217.063 207.386 216.933C207.104 216.8 206.881 216.609 206.715 216.361C206.549 216.11 206.466 215.807 206.466 215.452C206.466 215.139 206.528 214.886 206.651 214.692C206.774 214.495 206.939 214.341 207.145 214.23C207.351 214.119 207.578 214.036 207.827 213.982C208.077 213.925 208.33 213.88 208.583 213.847C208.914 213.804 209.183 213.772 209.389 213.751C209.597 213.727 209.749 213.688 209.844 213.634C209.941 213.579 209.989 213.484 209.989 213.349V213.321C209.989 212.971 209.893 212.698 209.702 212.504C209.512 212.31 209.224 212.213 208.839 212.213C208.439 212.213 208.125 212.301 207.898 212.476C207.67 212.651 207.51 212.838 207.418 213.037L206.623 212.753C206.765 212.421 206.954 212.163 207.191 211.979C207.43 211.792 207.69 211.661 207.972 211.588C208.256 211.512 208.536 211.474 208.81 211.474C208.985 211.474 209.187 211.496 209.414 211.538C209.644 211.579 209.865 211.663 210.078 211.79C210.293 211.918 210.472 212.111 210.614 212.369C210.756 212.627 210.827 212.973 210.827 213.406V217H209.989V216.261H209.947C209.89 216.38 209.795 216.506 209.662 216.641C209.53 216.776 209.354 216.891 209.133 216.986C208.913 217.08 208.644 217.128 208.327 217.128ZM208.455 216.375C208.787 216.375 209.066 216.31 209.293 216.18C209.523 216.049 209.696 215.881 209.812 215.675C209.93 215.469 209.989 215.253 209.989 215.026V214.259C209.954 214.301 209.876 214.34 209.755 214.376C209.636 214.409 209.499 214.438 209.343 214.464C209.189 214.488 209.039 214.509 208.892 214.528C208.747 214.545 208.63 214.559 208.54 214.571C208.323 214.599 208.119 214.646 207.93 214.71C207.742 214.771 207.591 214.865 207.475 214.99C207.361 215.113 207.305 215.281 207.305 215.494C207.305 215.786 207.412 216.006 207.628 216.155C207.845 216.302 208.121 216.375 208.455 216.375ZM217.385 217.114C216.893 217.114 216.461 216.996 216.089 216.762C215.72 216.528 215.431 216.2 215.223 215.778C215.017 215.357 214.914 214.865 214.914 214.301C214.914 213.733 215.017 213.237 215.223 212.813C215.431 212.389 215.72 212.06 216.089 211.826C216.461 211.592 216.893 211.474 217.385 211.474C217.878 211.474 218.309 211.592 218.678 211.826C219.05 212.06 219.338 212.389 219.544 212.813C219.753 213.237 219.857 213.733 219.857 214.301C219.857 214.865 219.753 215.357 219.544 215.778C219.338 216.2 219.05 216.528 218.678 216.762C218.309 216.996 217.878 217.114 217.385 217.114ZM217.385 216.361C217.759 216.361 218.067 216.265 218.309 216.073C218.55 215.881 218.729 215.629 218.845 215.317C218.961 215.004 219.019 214.666 219.019 214.301C219.019 213.937 218.961 213.597 218.845 213.282C218.729 212.967 218.55 212.713 218.309 212.518C218.067 212.324 217.759 212.227 217.385 212.227C217.011 212.227 216.703 212.324 216.462 212.518C216.221 212.713 216.042 212.967 215.926 213.282C215.81 213.597 215.752 213.937 215.752 214.301C215.752 214.666 215.81 215.004 215.926 215.317C216.042 215.629 216.221 215.881 216.462 216.073C216.703 216.265 217.011 216.361 217.385 216.361ZM220.423 212.327V211.545H224.855V212.327H223.065V217H222.227V212.327H220.423Z" fill="white"/>
<path d="M253.195 289.62L256.999 285.817C257.448 285.367 257.448 284.632 256.999 284.183L253.195 280.38" stroke="white" stroke-width="1.5" stroke-miterlimit="10" stroke-linecap="round" stroke-linejoin="round"/>
<mask id="mask0_1270_179927" style="mask-type:alpha" maskUnits="userSpaceOnUse" x="0" y="0" width="1401" height="354">
<path d="M0 25C0 11.1929 11.1929 0 25 0H1376C1389.81 0 1401 11.1929 1401 25V354H0V25Z" fill="#E0F2FF"/>
</mask>
<g mask="url(#mask0_1270_179927)">
<path fill-rule="evenodd" clip-rule="evenodd" d="M466.5 333C553.485 333 624 262.485 624 175.5C624 88.5152 553.485 18 466.5 18C379.515 18 309 88.5152 309 175.5C309 262.485 379.515 333 466.5 333ZM466.495 258.507C512.338 258.507 549.502 221.344 549.502 175.5C549.502 129.657 512.338 92.4937 466.495 92.4937C420.652 92.4937 383.488 129.657 383.488 175.5C383.488 221.344 420.652 258.507 466.495 258.507Z" fill="white" fill-opacity="0.37"/>
<path fill-rule="evenodd" clip-rule="evenodd" d="M1186.5 541C1273.48 541 1344 470.485 1344 383.5C1344 296.515 1273.48 226 1186.5 226C1099.52 226 1029 296.515 1029 383.5C1029 470.485 1099.52 541 1186.5 541ZM1186.5 466.507C1232.34 466.507 1269.5 429.344 1269.5 383.5C1269.5 337.657 1232.34 300.494 1186.5 300.494C1140.65 300.494 1103.49 337.657 1103.49 383.5C1103.49 429.344 1140.65 466.507 1186.5 466.507Z" fill="white" fill-opacity="0.37"/>
<rect x="1388.27" y="241" width="5.07317" height="24.7317" rx="2.53659" fill="white"/>
<rect x="1388.27" y="353.244" width="5.07317" height="24.7317" rx="2.53659" fill="white"/>
<rect x="1388.27" y="268.902" width="5.07317" height="24.7317" rx="2.53659" fill="white"/>
<rect x="1388.27" y="324.707" width="5.07317" height="24.7317" rx="2.53659" fill="white"/>
<rect x="1387" y="296.805" width="5.07317" height="24.7317" rx="2.53659" fill="white"/>
<rect x="1397.14" y="241" width="5.07317" height="24.7317" rx="2.53659" fill="white"/>
<rect x="1397.15" y="353.244" width="5.07317" height="24.7317" rx="2.53659" fill="white"/>
<rect x="1397.14" y="268.902" width="5.07317" height="24.7317" rx="2.53659" fill="white"/>
<rect x="1397.14" y="324.708" width="5.07317" height="24.7317" rx="2.53659" fill="white"/>
</g>
<rect x="649.266" y="207" width="5.07317" height="24.7317" rx="2.53659" fill="white"/>
<rect x="649.266" y="319.244" width="5.07317" height="24.7317" rx="2.53659" fill="white"/>
<rect x="649.266" y="234.902" width="5.07317" height="24.7317" rx="2.53659" fill="white"/>
<rect x="649.266" y="290.707" width="5.07317" height="24.7317" rx="2.53659" fill="white"/>
<rect x="648" y="262.805" width="5.07317" height="24.7317" rx="2.53659" fill="white"/>
<rect x="658.141" y="207" width="5.07317" height="24.7317" rx="2.53659" fill="white"/>
<rect x="658.148" y="319.244" width="5.07317" height="24.7317" rx="2.53659" fill="white"/>
<rect x="658.141" y="234.902" width="5.07317" height="24.7317" rx="2.53659" fill="white"/>
<rect x="658.141" y="290.708" width="5.07317" height="24.7317" rx="2.53659" fill="white"/>
<rect x="668.93" y="262.805" width="5.07317" height="24.7317" rx="2.53659" fill="white"/>
<rect x="667.656" y="207" width="5.07317" height="24.7317" rx="2.53659" fill="white"/>
<rect x="667.656" y="319.244" width="5.07317" height="24.7317" rx="2.53659" fill="white"/>
</svg>
