<svg width="1296" height="283" viewBox="0 0 1296 283" fill="none" xmlns="http://www.w3.org/2000/svg">
<rect opacity="0.8" width="1296" height="282.896" rx="30.2239" fill="#4169E0"/>
<rect x="12.0898" y="9.67188" width="1265.78" height="262.343" rx="24.1791" fill="#4169E0"/>
<mask id="mask0_1544_45997" style="mask-type:alpha" maskUnits="userSpaceOnUse" x="9" y="0" width="1269" height="280">
<rect opacity="0.8" x="9.26562" width="1200" height="280" rx="25" fill="#4169E0"/>
<rect x="21.8477" y="9.67188" width="1255.41" height="262.343" rx="24.1791" fill="#4169E0"/>
</mask>
<g mask="url(#mask0_1544_45997)">
<path d="M1330.45 44.7328C1330.45 126.534 1265.22 192.83 1184.78 192.83C1104.33 192.83 1039.1 126.534 1039.1 44.7328C1039.1 -37.0684 1104.33 -103.364 1184.78 -103.364C1265.22 -103.364 1330.45 -37.0684 1330.45 44.7328Z" stroke="white" stroke-opacity="0.13" stroke-width="1.20896"/>
<path d="M237.561 230.913C237.561 307.383 177.731 369.338 103.971 369.338C30.2119 369.338 -29.6182 307.383 -29.6182 230.913C-29.6182 154.442 30.2119 92.4873 103.971 92.4873C177.731 92.4873 237.561 154.442 237.561 230.913Z" stroke="white" stroke-opacity="0.13" stroke-width="1.20896"/>
<path d="M1343.76 195.247C1343.76 236.658 1310.99 270.202 1270.61 270.202C1230.23 270.202 1197.47 236.658 1197.47 195.247C1197.47 153.837 1230.23 120.292 1270.61 120.292C1310.99 120.292 1343.76 153.837 1343.76 195.247Z" stroke="white" stroke-opacity="0.13" stroke-width="1.20896"/>
<path d="M75.5602 93.0882C75.5602 131.5 45.5001 162.603 8.46321 162.603C-28.5736 162.603 -58.6338 131.5 -58.6338 93.0882C-58.6338 54.676 -28.5736 23.5732 8.46321 23.5732C45.5001 23.5732 75.5602 54.676 75.5602 93.0882Z" stroke="white" stroke-opacity="0.13" stroke-width="1.20896"/>
</g>
</svg>
