<svg width="1295" height="366" viewBox="0 0 1295 366" fill="none" xmlns="http://www.w3.org/2000/svg">
<rect opacity="0.8" width="1295" height="365.874" rx="30.0883" fill="#CEEBFF"/>
<rect x="15.4844" y="12.6641" width="1264.03" height="340.544" rx="24.0706" fill="#E0F2FF"/>
<mask id="mask0_1377_192001" style="mask-type:alpha" maskUnits="userSpaceOnUse" x="0" y="0" width="1295" height="366">
<rect opacity="0.8" width="1295" height="365.874" rx="30.0883" fill="#CEEBFF"/>
<rect x="15.4844" y="12.6641" width="1264.03" height="340.544" rx="24.0706" fill="#E0F2FF"/>
</mask>
<g mask="url(#mask0_1377_192001)">
<rect x="1042.58" y="37.3125" width="6.10572" height="29.7654" rx="3.05286" fill="#E0F2FF"/>
<rect x="1042.58" y="172.398" width="6.10572" height="29.7654" rx="3.05286" fill="#E0F2FF"/>
<rect x="1042.58" y="70.8906" width="6.10572" height="29.7654" rx="3.05286" fill="#E0F2FF"/>
<rect x="1042.58" y="138.055" width="6.10572" height="29.7654" rx="3.05286" fill="#E0F2FF"/>
<rect x="1041.05" y="104.477" width="6.10572" height="29.7654" rx="3.05286" fill="#E0F2FF"/>
<rect x="1053.27" y="37.3125" width="6.10572" height="29.7654" rx="3.05286" fill="#E0F2FF"/>
<rect x="1053.27" y="172.398" width="6.10572" height="29.7654" rx="3.05286" fill="#E0F2FF"/>
<rect x="1053.27" y="70.8906" width="6.10572" height="29.7654" rx="3.05286" fill="#E0F2FF"/>
<rect x="1053.27" y="138.055" width="6.10572" height="29.7654" rx="3.05286" fill="#E0F2FF"/>
<rect x="1066.24" y="104.477" width="6.10572" height="29.7654" rx="3.05286" fill="#E0F2FF"/>
<rect x="1064.71" y="37.3125" width="6.10572" height="29.7654" rx="3.05286" fill="#E0F2FF"/>
<rect x="1064.71" y="172.398" width="6.10572" height="29.7654" rx="3.05286" fill="#E0F2FF"/>
<rect x="186.867" y="222.656" width="6.10572" height="29.7654" rx="3.05286" fill="#E0F2FF"/>
<rect x="186.867" y="357.742" width="6.10572" height="29.7654" rx="3.05286" fill="#E0F2FF"/>
<rect x="186.867" y="256.234" width="6.10572" height="29.7654" rx="3.05286" fill="#E0F2FF"/>
<rect x="186.867" y="323.398" width="6.10572" height="29.7654" rx="3.05286" fill="#E0F2FF"/>
<rect x="185.344" y="289.82" width="6.10572" height="29.7654" rx="3.05286" fill="#E0F2FF"/>
<rect x="197.555" y="222.656" width="6.10572" height="29.7654" rx="3.05286" fill="#E0F2FF"/>
<rect x="197.555" y="357.742" width="6.10572" height="29.7654" rx="3.05286" fill="#E0F2FF"/>
<rect x="197.555" y="256.234" width="6.10572" height="29.7654" rx="3.05286" fill="#E0F2FF"/>
<rect x="197.555" y="323.398" width="6.10572" height="29.7654" rx="3.05286" fill="#E0F2FF"/>
<rect x="210.531" y="289.82" width="6.10572" height="29.7654" rx="3.05286" fill="#E0F2FF"/>
<rect x="209" y="222.656" width="6.10572" height="29.7654" rx="3.05286" fill="#E0F2FF"/>
<rect x="209" y="357.742" width="6.10572" height="29.7654" rx="3.05286" fill="#E0F2FF"/>
<path fill-rule="evenodd" clip-rule="evenodd" d="M126.373 475.394C224.747 475.394 304.495 395.646 304.495 297.271C304.495 198.897 224.747 119.148 126.373 119.148C27.9982 119.148 -51.75 198.897 -51.75 297.271C-51.75 395.646 27.9982 475.394 126.373 475.394ZM126.373 391.147C178.219 391.147 220.248 349.117 220.248 297.271C220.248 245.425 178.219 203.396 126.373 203.396C74.5268 203.396 32.4973 245.425 32.4973 297.271C32.4973 349.117 74.5268 391.147 126.373 391.147Z" fill="white" fill-opacity="0.37"/>
<path fill-rule="evenodd" clip-rule="evenodd" d="M1044.07 106.14C1094.92 106.14 1136.14 64.9191 1136.14 14.0702C1136.14 -36.7788 1094.92 -78 1044.07 -78C993.221 -78 952 -36.7788 952 14.0702C952 64.9191 993.221 106.14 1044.07 106.14ZM1044.07 62.5935C1070.87 62.5935 1092.59 40.8688 1092.59 14.0701C1092.59 -12.7287 1070.87 -34.4534 1044.07 -34.4534C1017.27 -34.4534 995.546 -12.7287 995.546 14.0701C995.546 40.8688 1017.27 62.5935 1044.07 62.5935Z" fill="white" fill-opacity="0.37"/>
</g>
</svg>
