<?xml version="1.0" standalone="no"?>
<!DOCTYPE svg PUBLIC "-//W3C//DTD SVG 20010904//EN"
 "http://www.w3.org/TR/2001/REC-SVG-20010904/DTD/svg10.dtd">
<svg version="1.0" xmlns="http://www.w3.org/2000/svg"
 width="1024.000000pt" height="1024.000000pt" viewBox="0 0 1024.000000 1024.000000"
 preserveAspectRatio="xMidYMid meet">
<metadata>
Created by potrace 1.14, written by Peter Selinger 2001-2017
</metadata>
<g transform="translate(0.000000,1024.000000) scale(0.100000,-0.100000)"
fill="#000000" stroke="none">
<path d="M2553 7683 c-1404 -1053 -2550 -1919 -2547 -1924 3 -5 281 -9 635 -9
l629 0 0 -2555 0 -2555 1290 0 1290 0 0 1275 0 1275 1270 0 1270 0 0 -1275 0
-1275 1290 0 1290 0 0 2575 0 2575 53 0 c28 0 252 -7 497 -15 562 -18 708 -21
715 -13 7 7 -5101 3838 -5117 3837 -7 0 -1162 -862 -2565 -1916z"/>
</g>
</svg>
